<?xml version="1.0" encoding="UTF-8" standalone="no"?>
<svg width="1440px" height="896px" viewBox="0 0 1440 896" version="1.1" xmlns="http://www.w3.org/2000/svg" xmlns:xlink="http://www.w3.org/1999/xlink">
    <!-- Generator: Sketch 39.1 (31720) - http://www.bohemiancoding.com/sketch -->
    <title>Group</title>
    <desc>Created with Sketch.</desc>
    <defs></defs>
    <g id="Redesign" stroke="none" stroke-width="1" fill="none" fill-rule="evenodd">
        <g id="Project-Copy-11" transform="translate(0.000000, -128.000000)" fill="#FFFFFF">
            <g id="Group" transform="translate(-394.000000, 128.000000)">
                <path d="M561,368 L561,926 L328,926 L328,368 L0,368 L327.5,89 L655,368 L561,368 Z" id="Combined-Shape" opacity="0.15"></path>
                <path d="M1714,0 L1996,0 L1996,896 L1714,896 L1714,0 Z M1744,26 L1834,26 L1834,100 L1744,100 L1744,26 Z M1744,128 L1834,128 L1834,202 L1744,202 L1744,128 Z M1744,230 L1834,230 L1834,304 L1744,304 L1744,230 Z M1744,332 L1834,332 L1834,406 L1744,406 L1744,332 Z M1744,434 L1834,434 L1834,508 L1744,508 L1744,434 Z M1744,536 L1834,536 L1834,610 L1744,610 L1744,536 Z M1744,638 L1834,638 L1834,712 L1744,712 L1744,638 Z M1744,740 L1834,740 L1834,814 L1744,814 L1744,740 Z" id="Combined-Shape" opacity="0.150000006"></path>
                <path d="M2229,896 C2229,731.419145 1972.01145,598 1655,598 C1337.98855,598 1081,731.419145 1081,896 L1270,896 C1270,793.275037 1430.50592,710 1628.5,710 C1826.49408,710 1987,793.275037 1987,896 L2229,896 Z" id="Combined-Shape" opacity="0.0899999961"></path>
                <path d="M784.074288,189.538036 L852.560203,189.538036 L892.072763,146 L864.85857,146 L837.02363,163.172464 L699.929459,163.172464 C687.894964,163.172464 671.71952,170.497214 663.785523,179.53275 L655,189.538036 L734.699726,189.538036 L770.412499,206.663464 L818.680574,210.660023 L784.074288,189.538036 Z" id="Combined-Shape" opacity="0.100000001"></path>
            </g>
        </g>
    </g>
</svg>