<?xml version="1.0" encoding="UTF-8" standalone="no"?>
<svg class="export-icon" viewBox="0 0 40 40" version="1.1" xmlns="http://www.w3.org/2000/svg" xmlns:xlink="http://www.w3.org/1999/xlink">
    <!-- Generator: Sketch 39.1 (31720) - http://www.bohemiancoding.com/sketch -->
    <title>Page 1</title>
    <desc>Created with Sketch.</desc>
    <defs></defs>
    <g id="Teoboley.com" stroke="none" stroke-width="1" fill="none" fill-rule="evenodd">
        <g id="Project-Copy-9" transform="translate(-700.000000, -589.000000)" fill="#FFFFFF">
            <g id="Hover" transform="translate(351.000000, 363.000000)">
                <path d="M353.416667,261.333333 L353.416667,231.410304 C353.416667,230.861533 352.977033,230.416667 352.414457,230.416667 L350.00221,230.416667 C349.448705,230.416667 349,230.865632 349,231.410304 L349,261.333333 C349,263.773541 350.976458,265.75 353.416667,265.75 L383.339696,265.75 C383.888467,265.75 384.333333,265.310366 384.333333,264.74779 L384.333333,262.335543 C384.333333,261.782038 383.884368,261.333333 383.339696,261.333333 L353.416667,261.333333 Z M373.291667,226 L373.291667,230.416667 L381.208542,230.416667 L359.500625,252.124583 L362.625417,255.249375 L384.333333,233.541458 L384.333333,241.458333 L388.75,241.458333 L388.75,226 L373.291667,226 L373.291667,226 Z" id="Page-1"></path>
            </g>
        </g>
    </g>
</svg>